# xmcd CD database file generated by Grip 3.0.7
# 
# Track frame offsets:
#       150
#       17833
#       36119
#       52793
#       73836
#       89224
#       102650
#       124710
#       141422
#       151739
#       171981
# 
# Disc length: 2522 seconds
# 
# Revision: 1
# Processed by: cddbd v1.5.1PL0 Copyright (c) Steve Scherf et al.
# Submitted via: Grip 3.0.7
# 
DISCID=9b09d80b
DTITLE=Mimi Whitcomb and Devotion - Sing Through Me
DYEAR=2004
DGENRE=Alternative
TTITLE0=Riversong
TTITLE1=Refugee
TTITLE2=Pink House
TTITLE3=On My Knees
TTITLE4=Holiday in Babylon
TTITLE5=Gravity
TTITLE6=So Brave
TTITLE7=Tat Vam Asi
TTITLE8=Sing Through Me
TTITLE9=The Selkie
TTITLE10=Riversong (remix)
EXTD=
EXTT0=
EXTT1=
EXTT2=
EXTT3=
EXTT4=
EXTT5=
EXTT6=
EXTT7=
EXTT8=
EXTT9=
EXTT10=
PLAYORDER=
